<svg xmlns="http://www.w3.org/2000/svg" width="110" height="110" viewBox="0 0 110 110">
    <g data-name="그룹 7620">
        <g transform="translate(23.957 28)">
            <g data-name="사각형 5720" transform="translate(0 3.353)" style="stroke-width:1.5px;stroke:#000;fill:#fff">
                <rect width="46" height="52.264" rx="3" style="stroke:none"/>
                <rect x=".75" y=".75" width="44.5" height="50.764" rx="2.25" style="fill:none"/>
            </g>
            <g data-name="사각형 5846" transform="translate(8.043)" style="fill:#e5e5e5;stroke-width:1.5px;stroke:#000">
                <rect width="29.957" height="10" rx="3" style="stroke:none"/>
                <rect x=".75" y=".75" width="28.457" height="8.5" rx="2.25" style="fill:none"/>
            </g>
            <rect data-name="사각형 5847" width="20.789" height="1.5" rx=".75" transform="translate(12.788 21.127)"/>
            <rect data-name="사각형 5848" width="20.789" height="1.5" rx=".75" transform="translate(12.606 30.796)"/>
            <rect data-name="사각형 5849" width="20.789" height="1.5" rx=".75" transform="translate(12.606 40.431)"/>
        </g>
        <path d="M-375.7 450.914h-1.522a1.77 1.77 0 0 1-1.658-1.715V443a7.2 7.2 0 0 0-4.566 6.6 7.114 7.114 0 0 0 3.078 6.331l-.034 22.852A4.553 4.553 0 0 0-375.7 483" transform="translate(457.474 -400)" style="stroke:#dc000c;stroke-miterlimit:10;stroke-width:1.5px;fill:#fff"/>
        <path d="M-360.5 450.914h1.522a1.77 1.77 0 0 0 1.657-1.715V443a7.2 7.2 0 0 1 4.567 6.6 7.114 7.114 0 0 1-3.078 6.331l.034 22.852A4.553 4.553 0 0 1-360.5 483" transform="translate(442.271 -400)" style="stroke:#dc000c;stroke-miterlimit:10;stroke-width:1.5px;fill:#fff"/>
    </g>
</svg>
