<svg xmlns="http://www.w3.org/2000/svg" width="120" height="120" viewBox="0 0 120 120">
    <g data-name="그룹 7740">
        <g data-name="사각형 6104" transform="translate(24.5 73.999)" style="stroke-width:2px;stroke:#111;fill:#fff">
            <rect width="60" height="2" rx="1" style="stroke:none"/>
            <rect x="1" y="1" width="58" style="fill:none"/>
        </g>
        <g data-name="사각형 6105" style="stroke-width:2px;stroke:#111;fill:#fff">
            <path d="M3 0h5.945a3 3 0 0 1 3 3v17.407H0V3a3 3 0 0 1 3-3z" style="stroke:none" transform="translate(32.75 55.593)"/>
            <path d="M3 1h5.945a2 2 0 0 1 2 2v16.407H1V3a2 2 0 0 1 2-2z" style="fill:none" transform="translate(32.75 55.593)"/>
        </g>
        <g data-name="사각형 6106" style="stroke-width:2px;stroke:#111;fill:#fff">
            <path d="M3 0h5.945a3 3 0 0 1 3 3v26.366H0V3a3 3 0 0 1 3-3z" style="stroke:none" transform="translate(48.527 46.634)"/>
            <path d="M3 1h5.945a2 2 0 0 1 2 2v25.366H1V3a2 2 0 0 1 2-2z" style="fill:none" transform="translate(48.527 46.634)"/>
        </g>
        <g data-name="사각형 6107" style="fill:#e5e5e5;stroke-width:2px;stroke:#111">
            <path d="M3 0h5.945a3 3 0 0 1 3 3v37H0V3a3 3 0 0 1 3-3z" style="stroke:none" transform="translate(64.305 36)"/>
            <path d="M3 1h5.945a2 2 0 0 1 2 2v36H1V3a2 2 0 0 1 2-2z" style="fill:none" transform="translate(64.305 36)"/>
        </g>
    </g>
    <g data-name="그룹 7738">
        <path data-name="패스 3999" d="m1192.469 844.628 13.252-15.042 5.77 4.925 11.033-12.1" transform="translate(-1157.969 -796.628)" style="stroke-linejoin:round;stroke-linecap:round;fill:none;stroke-width:2px;stroke:#111"/>
        <path data-name="패스 4000" d="m1215.735 822.517 5.712-.1v5.817" transform="translate(-1155.948 -797.412)" style="stroke-linejoin:round;stroke-linecap:round;fill:none;stroke-width:2px;stroke:#111"/>
    </g>
    <g data-name="그룹 7744">
        <g data-name="사각형 6108" style="stroke:#dc000c;stroke-width:2px;fill:#fff" transform="translate(68.5 51)">
            <rect width="38" height="38" rx="19" style="stroke:none"/>
            <rect x="1" y="1" width="36" height="36" rx="18" style="fill:none"/>
        </g>
        <path data-name="패스 4003" d="M0 0h15.927" transform="rotate(-60 108.423 -34.17)" style="stroke:#dc000c;stroke-linecap:round;fill:none;stroke-width:2px"/>
        <g data-name="타원 538" transform="translate(79.5 62)" style="stroke:#dc000c;stroke-width:2px;fill:#fff">
            <circle cx="3.5" cy="3.5" r="3.5" style="stroke:none"/>
            <circle cx="3.5" cy="3.5" r="2.5" style="fill:none"/>
        </g>
        <g data-name="타원 539" transform="translate(89.137 71.637)" style="stroke:#dc000c;stroke-width:2px;fill:#fff">
            <circle cx="3.279" cy="3.279" r="3.279" style="stroke:none"/>
            <circle cx="3.279" cy="3.279" r="2.279" style="fill:none"/>
        </g>
    </g>
</svg>
