<svg xmlns="http://www.w3.org/2000/svg" width="120" height="120" viewBox="0 0 120 120">
    <g data-name="그룹 7742">
        <g data-name="합치기 3" style="stroke-linejoin:round;fill:#fff">
            <path d="M52 42H4c-1.654 0-3-1.346-3-3V12.254c0-1.655 1.346-3.001 3-3.001h21.326l.211-.717 1.057-3.581.003-.012.004-.013C27.473 1.668 28.71 1 30.3 1h21.033a3.673 3.673 0 0 1 3.667 3.672V39c0 1.654-1.346 3-3 3z" style="stroke:none" transform="translate(28 28)"/>
            <path d="M52 41c1.103 0 2-.898 2-2V4.672A2.672 2.672 0 0 0 51.335 2H30.301c-.881 0-1.273.29-1.54.574-.459.489-.86 1.368-1.194 2.615a1.992 1.992 0 0 1-.014.049l-1.057 3.581a2 2 0 0 1-1.918 1.434H4c-1.103 0-2 .897-2 2V39c0 1.102.897 2 2 2h48m0 2H4a4 4 0 0 1-4-4V12.254a4 4 0 0 1 4-4.001h20.578l1.057-3.581C26.442 1.654 27.724 0 30.3 0h21.033a4.67 4.67 0 0 1 4.667 4.672V39a4 4 0 0 1-4 4z" style="fill:#000;stroke:none" transform="translate(28 28)"/>
        </g>
        <g data-name="사각형 5697" style="stroke-width:2px;stroke:#000;fill:#e5e5e5" transform="translate(28 79)">
            <rect width="56" height="15" rx="3" style="stroke:none"/>
            <rect x="1" y="1" width="54" height="13" rx="2" style="fill:none"/>
        </g>
        <g data-name="사각형 6114" transform="translate(42 83.909)" style="stroke-width:2px;stroke:#000;fill:#fff">
            <rect width="12" height="6" rx="3" style="stroke:none"/>
            <rect x="1" y="1" width="10" height="4" rx="2" style="fill:none"/>
        </g>
        <g data-name="사각형 6115" transform="translate(34 83.909)" style="stroke-width:2px;stroke:#000;fill:#fff">
            <rect width="6" height="6" rx="3" style="stroke:none"/>
            <rect x="1" y="1" width="4" height="4" rx="2" style="fill:none"/>
        </g>
        <g data-name="사각형 6113" style="stroke:#000;fill:#fff">
            <path style="stroke:none" d="M0 0h2v9H0z" transform="translate(55 70)"/>
            <path style="fill:none" d="M.5.5h1v8h-1z" transform="translate(55 70)"/>
        </g>
        <g data-name="그룹 7741">
            <path data-name="패스 4006" d="m-21481.334-21159-5.266 5.6 5.266 5.594" transform="translate(21531.511 21206.97)" style="stroke-linecap:round;fill:none;stroke-width:2px;stroke:#000;stroke-linejoin:round"/>
            <path data-name="패스 4007" d="M5.265 0 0 5.6l5.265 5.6" transform="rotate(180 34.209 29.582)" style="stroke-linecap:round;fill:none;stroke-width:2px;stroke:#000;stroke-linejoin:round"/>
            <path data-name="패스 4008" d="m-21472.355-21161.434-4.52 11.2" transform="translate(21531.743 21209.404)" style="stroke-linecap:round;fill:none;stroke-width:2px;stroke:#000"/>
        </g>
        <g data-name="그룹 7743">
            <g data-name="타원 537" style="stroke:#dc000c;stroke-width:2px;fill:#fff" transform="translate(65 57)">
                <circle cx="20" cy="20" r="20" style="stroke:none"/>
                <circle cx="20" cy="20" r="19" style="fill:none"/>
            </g>
            <path data-name="패스 4009" d="m-21452.52-21122.584 4.887 4.906 6.75-7.852" transform="translate(21531.938 21198.699)" style="stroke:#dc000c;stroke-linecap:round;fill:none;stroke-width:2px;stroke-linejoin:round"/>
        </g>
    </g>
</svg>
