<svg xmlns="http://www.w3.org/2000/svg" width="110" height="110" viewBox="0 0 110 110">
    <g data-name="그룹 7577">
        <g data-name="그룹 7563" transform="translate(23 38)">
            <g data-name="사각형 5701" transform="translate(1 -1)" style="stroke-width:1.5px;stroke:#000;fill:#e5e5e5">
                <rect width="55" height="40" rx="4" style="stroke:none"/>
                <rect x=".75" y=".75" width="53.5" height="38.5" rx="3.25" style="fill:none"/>
            </g>
            <g data-name="사각형 5856" transform="translate(6 4)" style="stroke-width:1.5px;stroke:#000;fill:#fff">
                <rect width="45" height="37" rx="3" style="stroke:none"/>
                <rect x=".75" y=".75" width="43.5" height="35.5" rx="2.25" style="fill:none"/>
            </g>
            <g data-name="사각형 5702" transform="translate(-4 32)" style="stroke-width:1.5px;stroke:#000;fill:#fff">
                <rect width="66" height="9" rx="3" style="stroke:none"/>
                <rect x=".75" y=".75" width="64.5" height="7.5" rx="2.25" style="fill:none"/>
            </g>
            <rect data-name="사각형 5707" width="2" height="2" rx="1" transform="translate(5.998 36)"/>
            <rect data-name="사각형 5708" width="2" height="2" rx="1" transform="translate(11.998 36)"/>
        </g>
        <g data-name="타원 516" transform="translate(56 24)" style="stroke:#dc000c;stroke-width:1.5px;fill:#fff">
            <circle cx="18.5" cy="18.5" r="18.5" style="stroke:none"/>
            <circle cx="18.5" cy="18.5" r="17.75" style="fill:none"/>
        </g>
        <g data-name="그룹 7621">
            <path data-name="패스 3927" d="m617.082 1935.664-10.122 6.423" transform="translate(-539.25 -1899.786)" style="fill:none;stroke:#dc000c;stroke-width:1.5px"/>
            <path data-name="패스 3943" d="m616.529 1942.4-9.6-5.515" transform="translate(-538.762 -1894.196)" style="fill:none;stroke:#dc000c;stroke-width:1.5px"/>
            <g data-name="사각형 5703" transform="translate(64 38.999)" style="stroke:#dc000c;stroke-width:1.5px;fill:#fff">
                <rect width="7" height="7" rx="3.5" style="stroke:none"/>
                <rect x=".75" y=".75" width="5.5" height="5.5" rx="2.75" style="fill:none"/>
            </g>
            <g data-name="사각형 5706" transform="translate(75 45)" style="stroke:#dc000c;stroke-width:1.5px;fill:#fff">
                <rect width="7" height="7" rx="3.5" style="stroke:none"/>
                <rect x=".75" y=".75" width="5.5" height="5.5" rx="2.75" style="fill:none"/>
            </g>
            <g data-name="사각형 5705" transform="translate(75 31.57)" style="stroke:#dc000c;stroke-width:1.5px;fill:#fff">
                <rect width="7" height="7" rx="3.5" style="stroke:none"/>
                <rect x=".75" y=".75" width="5.5" height="5.5" rx="2.75" style="fill:none"/>
            </g>
        </g>
    </g>
</svg>
