<svg xmlns="http://www.w3.org/2000/svg" width="120" height="120" viewBox="0 0 120 120">
    <g data-name="그룹 7561">
        <g data-name="사각형 6091" style="stroke:#000;stroke-width:2px;fill:#fff">
            <path style="stroke:none" d="M0 0h12v10H0z" transform="translate(54 77)"/>
            <path style="fill:none" d="M1 1h10v8H1z" transform="translate(54 77)"/>
        </g>
        <g data-name="사각형 5697" style="stroke:#000;stroke-width:2px;fill:#fff">
            <path d="M3 0h62a3 3 0 0 1 3 3v41H0V3a3 3 0 0 1 3-3z" style="stroke:none" transform="translate(26 29)"/>
            <path d="M3 1h62a2 2 0 0 1 2 2v40H1V3a2 2 0 0 1 2-2z" style="fill:none" transform="translate(26 29)"/>
        </g>
        <g data-name="사각형 5872" style="stroke:#000;stroke-width:2px;fill:#fff">
            <path d="M3 0h4v34H3a3 3 0 0 1-3-3V3a3 3 0 0 1 3-3z" style="stroke:none" transform="rotate(90 -4 81)"/>
            <path d="M3 1h3v32H3a2 2 0 0 1-2-2V3a2 2 0 0 1 2-2z" style="fill:none" transform="rotate(90 -4 81)"/>
        </g>
        <g data-name="사각형 6117" style="fill:#e5e5e5;stroke:#000;stroke-width:2px">
            <path d="M0 0h68v5a3 3 0 0 1-3 3H3a3 3 0 0 1-3-3V0z" style="stroke:none" transform="translate(26 71)"/>
            <path d="M1 1h66v4a2 2 0 0 1-2 2H3a2 2 0 0 1-2-2V1z" style="fill:none" transform="translate(26 71)"/>
        </g>
    </g>
    <g data-name="그룹 7733" transform="translate(40 34.001)">
        <g data-name="다각형 10" style="fill:#fff">
            <path d="M34.674 32H5.326c-.732 0-1.383-.38-1.742-1.018a1.977 1.977 0 0 1 .032-2.019L18.29 4.752A1.985 1.985 0 0 1 20 3.788c.705 0 1.345.36 1.71.964l14.674 24.211c.38.626.392 1.38.032 2.019A1.977 1.977 0 0 1 34.674 32z" style="stroke:none"/>
            <path d="M20 4.788a.985.985 0 0 0-.855.482L4.47 29.482a.981.981 0 0 0-.016 1.009c.086.153.344.509.871.509h29.348a.981.981 0 0 0 .871-.51.981.981 0 0 0-.016-1.008L20.855 5.27A.985.985 0 0 0 20 4.788m0-2c.99 0 1.982.482 2.566 1.445l14.673 24.212c1.212 2-.227 4.555-2.565 4.555H5.326c-2.338 0-3.777-2.556-2.565-4.555L17.434 4.233A2.974 2.974 0 0 1 20 2.788z" style="fill:#dc000c;stroke:none"/>
        </g>
        <rect data-name="사각형 6092" width="2" height="9" rx="1" transform="rotate(180 10.5 11)" style="fill:#dc000c"/>
        <rect data-name="사각형 6093" width="2" height="2" rx="1" transform="rotate(180 10.5 13.5)" style="fill:#dc000c"/>
    </g>
</svg>
