<svg xmlns="http://www.w3.org/2000/svg" width="120" height="120" viewBox="0 0 120 120">
    <g data-name="그룹 7634">
        <g data-name="패스 3961" style="fill:#fff">
            <path d="M57.792 57H18.25c-4.604 0-8.933-1.842-12.19-5.188C2.797 48.46 1 43.998 1 39.25c0-4.41 1.584-8.638 4.46-11.906 2.847-3.236 6.727-5.274 10.923-5.74l.536-.06.245-.48a22.392 22.392 0 0 1 7.895-8.722A21.268 21.268 0 0 1 36.5 9c2.586 0 5.117.461 7.522 1.37a21.588 21.588 0 0 1 6.39 3.79c3.856 3.289 6.511 7.866 7.477 12.888l.145.753.764.056c3.575.262 6.897 1.881 9.355 4.56C70.633 35.118 72 38.655 72 42.374 72 50.439 65.626 57 57.792 57z" style="stroke:none" transform="translate(21.391 16.542)"/>
            <path d="M36.5 10a20.27 20.27 0 0 0-10.904 3.185 21.392 21.392 0 0 0-7.541 8.333l-.49.96-1.071.12c-3.949.438-7.6 2.358-10.284 5.407C3.495 31.09 2 35.083 2 39.25c0 4.486 1.697 8.7 4.777 11.865C9.843 54.265 13.917 56 18.25 56h39.542C65.075 56 71 49.888 71 42.375c0-3.468-1.273-6.765-3.583-9.282-2.286-2.49-5.372-3.995-8.692-4.239l-1.528-.112-.29-1.505c-.923-4.8-3.46-9.174-7.143-12.317a20.59 20.59 0 0 0-6.096-3.614A20.194 20.194 0 0 0 36.5 10m0-2c11.072 0 20.303 8.11 22.371 18.86C66.75 27.437 73 34.124 73 42.374 73 51 66.187 58 57.792 58H18.25C8.167 58 0 49.61 0 39.25c0-9.672 7.133-17.625 16.273-18.64C20.09 13.124 27.71 8 36.5 8z" style="fill:#000;stroke:none" transform="translate(21.391 16.542)"/>
        </g>
        <g data-name="사각형 5714" transform="translate(45.999 41.817)" style="stroke-width:2px;stroke:#000;fill:#e5e5e5">
            <rect width="22" height="22" rx="3" style="stroke:none"/>
            <rect x="1" y="1" width="20" height="20" rx="2" style="fill:none"/>
        </g>
        <g data-name="사각형 5715" transform="translate(50.781 46.817)" style="stroke-width:2px;stroke:#000;fill:#fff">
            <rect width="12" height="12" rx="3" style="stroke:none"/>
            <rect x="1" y="1" width="10" height="10" rx="2" style="fill:none"/>
        </g>
        <g data-name="그룹 7567">
            <g data-name="그룹 7632" transform="rotate(180 31.014 21.409)">
                <rect data-name="사각형 5870" width="2" height="4" rx="1" transform="translate(-.972 -.182)"/>
                <rect data-name="사각형 5868" width="2" height="7" rx="1" transform="translate(4.028 .001)"/>
                <rect data-name="사각형 5866" width="2" height="4" rx="1" transform="translate(9.028 -.182)"/>
            </g>
            <g data-name="그룹 7643" transform="rotate(90 -.238 47.57)">
                <rect data-name="사각형 5870" width="2" height="5" rx="1" transform="translate(-.809 .332)"/>
                <rect data-name="사각형 5868" width="2" height="6" rx="1" transform="translate(4.191 .332)"/>
                <rect data-name="사각형 5866" width="2" height="4" rx="1" transform="translate(9.192 .332)"/>
            </g>
            <g data-name="그룹 7644" transform="rotate(90 13.082 60.89)">
                <rect data-name="사각형 5870" width="2" height="5" rx="1" transform="translate(-.809 1.972)"/>
                <rect data-name="사각형 5868" width="2" height="7" rx="1" transform="translate(4.19 .972)"/>
                <rect data-name="사각형 5866" width="2" height="4" rx="1" transform="translate(9.191 2.972)"/>
            </g>
        </g>
    </g>
    <g data-name="352272_cloud_icon">
        <g data-name="사각형 6116" transform="translate(71.999 56.999)" style="stroke:#dc000c;stroke-width:2px;fill:#fff">
            <rect width="30" height="30" rx="15" style="stroke:none"/>
            <rect x="1" y="1" width="28" height="28" rx="14" style="fill:none"/>
        </g>
        <g data-name="합치기 2" style="stroke-linejoin:round;fill:none">
            <path d="M2.727 11V5H0l5-6 5 6H7.273v6z" style="stroke:none" transform="rotate(180 46 39)"/>
            <path d="M7.273 11V5H10L5-1 0 5h2.727v6h4.546m0 2H2.727a2 2 0 0 1-2-2V7H0a2 2 0 0 1-1.536-3.28l5-6a2 2 0 0 1 3.072 0l5 5.999A2 2 0 0 1 10 6.999h-.727v4.002a2 2 0 0 1-2 2z" style="fill:#dc000c;stroke:none" transform="rotate(180 46 39)"/>
        </g>
    </g>
</svg>
