<svg xmlns="http://www.w3.org/2000/svg" width="162" height="60" viewBox="0 0 162 60">
    <defs>
        <style>
            .cls-2{fill:#dc000c;fill-rule:evenodd}.cls-3{fill:#1a1311}
        </style>
    </defs>
    <g id="logo" transform="translate(-198 -31)">
        <g id="logo-2" data-name="logo" transform="translate(200 31)">
            <g id="그룹_3" data-name="그룹 3" transform="translate(0 2)">
                <g id="그룹_4" data-name="그룹 4">
                    <path id="패스_1" data-name="패스 1" class="cls-2" d="M12.2 22.83a14.222 14.222 0 0 0 12.08 6.777c7.472 0 11.586-6.438 11.586-6.438l.529 1.715c-3.459 4.492-9.639 7.2-16.554 7.2-7.961 0-14.826-3.791-17.986-9.258A13.492 13.492 0 0 1 0 16.04C0 7.182 8.882 0 19.839 0c7.743 0 13.975 3.31 17.248 8.108L24.1 15.874 31.51 4.51a14.48 14.48 0 0 0-7.41-2.579A14 14 0 0 0 10.227 15.86a13.3 13.3 0 0 0 1.973 6.97" transform="translate(0 -.001)"/>
                    <path id="패스_2" data-name="패스 2" class="cls-2" d="M54.824 23.942a5.307 5.307 0 0 0-.058.782 5.22 5.22 0 0 0 10.441 0 5.276 5.276 0 0 0-.059-.785 5.222 5.222 0 0 0-10.325 0m19.371 0 2.594 8.74h-9.1L65.9 26.693c-1.2 3.448-5.243 5.985-10.047 5.985-5.748 0-10.407-3.63-10.407-8.108 0-.21.011-.419.031-.631.409-4.181 4.9-7.479 10.377-7.479a11.832 11.832 0 0 1 7.808 2.747l-2.479-8.289H50.735s1.738-1.042 9.445-3.846 10.15 3.846 10.15 3.846z" transform="translate(-7.909 -1.12)"/>
                    <path id="패스_3" data-name="패스 3" class="cls-2" d="M109.4 23.943v8.74h-9.366v-19.2a2.558 2.558 0 0 0-4.943-.928v20.13H85.9V10.922h-5.36S88 6.4 90.586 6.4a4.537 4.537 0 0 1 4.492 4.281c3.605-1.94 7.182-4.281 9.642-4.281a4.686 4.686 0 0 1 4.683 4.552z" transform="translate(-14.017 -1.124)"/>
                    <path id="패스_4" data-name="패스 4" class="cls-2" d="m130.548 23.906 1.3 4.308a3.384 3.384 0 0 0 3.4 3.323 3.447 3.447 0 0 0 3.452-3.447 3.7 3.7 0 0 0-.022-.4l-1.108-3.786-3.891-13.3a3.445 3.445 0 0 0-3.424-3.062 3.983 3.983 0 0 0-3.647 3.339zm14.9 0a13.5 13.5 0 1 1 .676-4.227 13.49 13.49 0 0 1-.676 4.227" transform="translate(-20.737 -1.087)"/>
                    <path id="패스_5" data-name="패스 5" class="cls-2" d="M166.745 23.943v8.74h-9.192V10.922h-5.14S159.65 6.4 162.236 6.4a4.538 4.538 0 0 1 4.492 4.281c3.607-1.945 7.182-4.281 9.641-4.281a4.685 4.685 0 0 1 4.683 4.552v21.73h-9.365v-19.2a2.558 2.558 0 0 0-4.943-.928z" transform="translate(-26.526 -1.124)"/>
                </g>
                <path id="패스_6" data-name="패스 6" class="cls-3" d="M8.449 50.438c0 4.5-1.229 8.495-6.22 11.3L1.165 60.4a10.063 10.063 0 0 0 4.587-4.716l-4.294.459-.258-1.631 5.064-.294a14.849 14.849 0 0 0 .349-2.257H2.046v-1.523zm6.825-1.981v16.6h-1.816v-8.509h-1.89v7.743h-1.78V48.86h1.78v6.147h1.89v-6.55z" transform="translate(-1.165 -8.263)"/>
                <path id="패스_7" data-name="패스 7" class="cls-3" d="M36.352 57.083v1.542H21.361v-1.542h6.55v-2.2h-4.6v-5.744H25.2v4.22h9.449v1.523H29.8v2.2zM25.086 63.3h9.688v1.542h-11.56v-5.025h1.872z" transform="translate(-4.52 -8.376)"/>
                <path id="패스_8" data-name="패스 8" class="cls-3" d="M56.57 61.714v1.559H41.579v-1.559h5.6v-4.165h1.909v4.165zm-3.56-7.431c.037-.9.037-1.725.037-2.477H43.34v-1.523h11.579v1.523a33.82 33.82 0 0 1-.716 7.816l-1.872-.222a29.689 29.689 0 0 0 .569-3.67l-9.78.532-.256-1.6z" transform="translate(-7.878 -8.566)"/>
                <path id="패스_9" data-name="패스 9" class="cls-3" d="M64.864 59.572A47.443 47.443 0 0 0 72.405 59l.2 1.541a45.633 45.633 0 0 1-8.238.588h-1.411v-6.565h5.781V51.48h-5.818v-1.54h7.725v6.147h-5.78zm10.826 5.5h-1.909V48.435h1.909z" transform="translate(-11.423 -8.259)"/>
                <path id="패스_10" data-name="패스 10" class="cls-3" d="M90.771 55.543c0 3.577-1.78 5.835-4.257 5.835s-4.257-2.257-4.257-5.835 1.78-5.854 4.257-5.854 4.257 2.276 4.257 5.854m-1.816 0c0-2.588-1.01-4.147-2.441-4.147-1.449 0-2.44 1.559-2.44 4.147s.991 4.147 2.44 4.147c1.431 0 2.441-1.559 2.441-4.147m8.568.972h-2.588v8.55h-1.89V48.478h1.89v6.478h2.587z" transform="translate(-14.635 -8.266)"/>
                <path id="패스_11" data-name="패스 11" class="cls-3" d="M122.243 59.509h-6.588v5.742h-1.89v-5.742h-6.5v-1.523h14.99zm-14.143-4.22c3.155-.422 5.486-2.239 5.6-4.165h-5.046V49.6h12.2v1.523h-5.009c.11 1.926 2.441 3.743 5.6 4.165l-.678 1.486a8.066 8.066 0 0 1-6-3.6 8.028 8.028 0 0 1-5.982 3.6z" transform="translate(-18.79 -8.453)"/>
                <path id="패스_12" data-name="패스 12" class="cls-3" d="M136.638 57.485a6.68 6.68 0 0 1-4.018-3.615 6.854 6.854 0 0 1-4.129 3.908l-.936-1.487a5.8 5.8 0 0 0 4.074-5.449v-1.614h1.926v1.615A5.489 5.489 0 0 0 137.573 56zM130 59.191h11.173v5.853h-1.893v-4.33H130zm11.173-.789h-1.89v-9.945h1.89z" transform="translate(-22.159 -8.263)"/>
                <path id="패스_13" data-name="패스 13" class="cls-3" d="M154.155 60.4c1.486-.093 2.991-.184 4.4-.386l.129 1.376a64.488 64.488 0 0 1-10.586.68l-.238-1.56c1.321 0 2.844 0 4.4-.055v-1.613c-1.871-.294-3.1-1.431-3.1-3.027 0-1.854 1.652-3.084 4.056-3.084 2.385 0 4.036 1.23 4.036 3.084 0 1.614-1.229 2.733-3.1 3.027zm4.054-8.477h-10.018V50.4h4.073v-1.906h1.89V50.4h4.054zm-4.99 5.54c1.321 0 2.238-.624 2.238-1.65 0-1.01-.917-1.634-2.238-1.634-1.34 0-2.257.624-2.257 1.634 0 1.027.916 1.65 2.257 1.65m8.183 7.578h-1.908V48.457h1.906z" transform="translate(-25.533 -8.263)"/>
                <path id="패스_14" data-name="패스 14" class="cls-3" d="M173.73 52.571a8.04 8.04 0 0 0 4.037 7.174l-1.157 1.5a8.251 8.251 0 0 1-3.816-4.88 8.564 8.564 0 0 1-4 5.192l-1.156-1.523c2.588-1.266 4.2-4.4 4.2-7.467v-2.712h1.89zm9.614 4.037h-2.588v8.44h-1.889V48.479h1.889v6.569h2.588z" transform="translate(-28.818 -8.266)"/>
            </g>
        </g>
    </g>
</svg>
