<svg xmlns="http://www.w3.org/2000/svg" width="20" height="20" viewBox="0 0 20 20">
    <g data-name="사각형 6002" style="fill:#e74c3c;stroke:#e74c3c;stroke-width:1.5px">
        <rect width="20" height="20" rx="10" style="stroke:none"/>
        <rect x=".75" y=".75" width="18.5" height="18.5" rx="9.25" style="fill:none"/>
    </g>
    <path data-name="패스 3982" d="M18.363 19.405a.7.7 0 0 1-.436-.154 1.156 1.156 0 0 1-.5-1.061c.082-.77.989-1.576 2.7-2.4a32.818 32.818 0 0 0 1.708-5.086c-.45-1.028-.887-2.361-.568-3.143a.891.891 0 0 1 .511-.575 2.118 2.118 0 0 1 .458-.081c.227 0 .427.307.568.5s.435.555-.168 3.218a15.181 15.181 0 0 0 2.289 3.577 8.372 8.372 0 0 1 1.514-.169c.706 0 1.134.173 1.308.528a1 1 0 0 1-.176 1.022 1.184 1.184 0 0 1-1 .563 2.953 2.953 0 0 1-1.9-1.081 20.876 20.876 0 0 0-3.98 1.335 13.619 13.619 0 0 1-1.074 2.011c-.461.679-.86.996-1.254.996zm1.2-2.425c-.963.568-1.356 1.035-1.384 1.3 0 .044-.017.158.194.327.067-.023.459-.207 1.19-1.627zm6.147-2.1c.367.3.457.447.7.447a.66.66 0 0 0 .545-.209.762.762 0 0 0 .1-.2c-.055-.031-.129-.093-.53-.093a6.284 6.284 0 0 0-.815.054zm-3.367-3.114a34.853 34.853 0 0 1-1.205 3.578 21.752 21.752 0 0 1 2.928-.956 16.242 16.242 0 0 1-1.723-2.623zm-.274-4a1.176 1.176 0 0 0 .043 1.521c.428-1.005-.023-1.532-.043-1.526z" transform="translate(-12.621 -4.157)" style="fill:#fff;stroke:#fff;stroke-width:.5px"/>
</svg>
