<svg xmlns="http://www.w3.org/2000/svg" width="120" height="120" viewBox="0 0 120 120">
    <g data-name="그룹 7578" transform="translate(26.006 30.273)">
        <g data-name="사각형 5696" transform="translate(-.006 -.274)" style="stroke-width:2px;stroke:#000;fill:#fff">
            <rect width="63" height="49" rx="3" style="stroke:none"/>
            <rect x="1" y="1" width="61" height="47" rx="2" style="fill:none"/>
        </g>
        <g data-name="다각형 7" style="fill:#d4d4d4">
            <path d="M24.69 24H7.31a2.96 2.96 0 0 1-2.633-1.56 2.96 2.96 0 0 1 .105-3.057l8.691-13.58A2.987 2.987 0 0 1 16 4.42c1.028 0 1.973.517 2.527 1.383l8.69 13.58c.6.938.64 2.08.106 3.057A2.96 2.96 0 0 1 24.69 24z" style="stroke:none" transform="rotate(90 19.634 28.36)"/>
            <path d="M16 5.42c-.696 0-1.31.336-1.685.922l-8.69 13.58c-.577.901-.241 1.725-.07 2.038.17.313.684 1.04 1.754 1.04h17.382c1.07 0 1.583-.727 1.754-1.04.171-.313.507-1.137-.07-2.038l-8.69-13.58A1.966 1.966 0 0 0 16 5.42m0-2c1.291 0 2.582.615 3.37 1.844l8.69 13.58C29.764 21.506 27.852 25 24.69 25H7.31c-3.162 0-5.074-3.494-3.37-6.156l8.69-13.58A3.968 3.968 0 0 1 16 3.42z" style="fill:#000;stroke:none" transform="rotate(90 19.634 28.36)"/>
        </g>
        <g data-name="사각형 5859" transform="translate(47.994 24.726)" style="stroke:#dc000c;stroke-width:2px;fill:#fff">
            <rect width="36" height="36" rx="18" style="stroke:none"/>
            <rect x="1" y="1" width="34" height="34" rx="17" style="fill:none"/>
        </g>
        <rect data-name="사각형 5860" width="2" height="11" rx="1" transform="translate(65.244 39.727)" style="fill:#dc000c"/>
        <rect data-name="사각형 5861" width="3" height="3" rx="1.5" transform="translate(64.744 34.727)" style="fill:#dc000c"/>
    </g>
</svg>
